<?xml version="1.0" encoding="utf-8"?>
<!-- Generator: Adobe Illustrator 16.0.0, SVG Export Plug-In . SVG Version: 6.00 Build 0)  -->
<!DOCTYPE svg PUBLIC "-//W3C//DTD SVG 1.1//EN" "http://www.w3.org/Graphics/SVG/1.1/DTD/svg11.dtd">
<svg version="1.1" id="Layer_1" xmlns="http://www.w3.org/2000/svg" xmlns:xlink="http://www.w3.org/1999/xlink" x="0px" y="0px"
	 width="16px" height="16px" viewBox="0 0 16 16" enable-background="new 0 0 16 16" xml:space="preserve">
<path fill="#00ADE6" d="M16,6.399h-3.201v2.133h0.533c0.295,0,0.537,0.239,0.537,0.532c0,0.295-0.242,0.535-0.537,0.535h-0.533
	h-0.531H3.733H3.201H2.668c-0.295,0-0.537-0.24-0.537-0.535c0-0.293,0.242-0.532,0.537-0.532h0.533V6.399H0v8.533h3.201v-2.134
	v-0.532h0.532h8.533h0.532v0.532v2.134H16V6.399z"/>
<rect x="3.733" y="12.799" fill="#00ADE6" width="8.533" height="3.201"/>
<polygon fill="#00ADE6" points="12.268,2.666 10.668,1.065 3.733,1.065 3.733,9.064 12.268,9.064 "/>
</svg>
