<?xml version="1.0" encoding="utf-8"?>
<!-- Generator: Adobe Illustrator 18.1.1, SVG Export Plug-In . SVG Version: 6.00 Build 0)  -->
<svg version="1.1" id="Layer_1" xmlns="http://www.w3.org/2000/svg" xmlns:xlink="http://www.w3.org/1999/xlink" x="0px" y="0px"
	 width="12px" height="12px" viewBox="0 0 12 12" enable-background="new 0 0 12 12" xml:space="preserve">
<g>
	<path fill="#00ADE6" d="M8.9,1.3C8.1,0.5,7.1,0,6,0C4.9,0,3.8,0.4,3.1,1.1C2.3,1.9,1.9,3,1.9,4.1c0,1.5,0.6,2.4,1.4,3.5
		C4,8.6,4.8,9.7,5.7,11.8C5.7,11.9,5.8,12,6,12s0.3-0.1,0.3-0.2c0.9-2.1,1.7-3.3,2.4-4.3c0.8-1.2,1.4-2,1.4-3.3
		C10.1,3.1,9.7,2.1,8.9,1.3z M6,5.6C5.2,5.6,4.5,5,4.5,4.1S5.2,2.6,6,2.6s1.5,0.7,1.5,1.5S6.8,5.6,6,5.6z"/>
</g>
</svg>
