<?xml version="1.0" encoding="utf-8"?>
<!-- Generator: Adobe Illustrator 18.1.1, SVG Export Plug-In . SVG Version: 6.00 Build 0)  -->
<svg version="1.1" id="Layer_1" xmlns="http://www.w3.org/2000/svg" xmlns:xlink="http://www.w3.org/1999/xlink" x="0px" y="0px"
	 width="120px" height="120px" viewBox="0 0 120 120" enable-background="new 0 0 120 120" xml:space="preserve">
<linearGradient id="crest_2_" gradientUnits="userSpaceOnUse" x1="28.0911" y1="9.6688" x2="92.7883" y2="111.7183">
	<stop  offset="0" style="stop-color:#0079BE"/>
	<stop  offset="0.2608" style="stop-color:#0273B4"/>
	<stop  offset="0.7006" style="stop-color:#08649A"/>
	<stop  offset="1" style="stop-color:#0D5884"/>
</linearGradient>
<polygon id="crest_1_" fill="url(#crest_2_)" points="0,60 2.5,57 0.3,53.9 3.1,51.2 1.2,47.9 4.2,45.6 2.7,42.2 5.9,40.2 4.7,36.6 
	8.1,35 7.2,31.4 10.7,30.1 10.2,26.5 13.8,25.5 13.7,21.8 17.4,21.3 17.6,17.6 21.3,17.4 21.8,13.7 25.5,13.8 26.5,10.2 30.1,10.7 
	31.4,7.2 35,8.1 36.6,4.7 40.2,5.9 42.2,2.7 45.6,4.2 47.9,1.2 51.2,3.1 53.9,0.3 57,2.5 60,0 63,2.5 66.1,0.3 68.8,3.1 72.1,1.2 
	74.4,4.2 77.8,2.7 79.8,5.9 83.4,4.7 85,8.1 88.6,7.2 89.9,10.7 93.5,10.2 94.5,13.8 98.2,13.7 98.7,17.4 102.4,17.6 102.6,21.3 
	106.3,21.8 106.2,25.5 109.8,26.5 109.3,30.1 112.8,31.4 111.9,35 115.3,36.6 114.1,40.2 117.3,42.2 115.8,45.6 118.8,47.9 
	116.9,51.2 119.7,53.9 117.5,57 120,60 117.5,63 119.7,66.1 116.9,68.8 118.8,72.1 115.8,74.4 117.3,77.8 114.1,79.8 115.3,83.4 
	111.9,85 112.8,88.6 109.3,89.9 109.8,93.5 106.2,94.5 106.3,98.2 102.6,98.7 102.4,102.4 98.7,102.6 98.2,106.3 94.5,106.2 
	93.5,109.8 89.9,109.3 88.6,112.8 85,111.9 83.4,115.3 79.8,114.1 77.8,117.3 74.4,115.8 72.1,118.8 68.8,116.9 66.1,119.7 
	63,117.5 60,120 57,117.5 53.9,119.7 51.2,116.9 47.9,118.8 45.6,115.8 42.2,117.3 40.2,114.1 36.6,115.3 35,111.9 31.4,112.8 
	30.1,109.3 26.5,109.8 25.5,106.2 21.8,106.3 21.3,102.6 17.6,102.4 17.4,98.7 13.7,98.2 13.8,94.5 10.2,93.5 10.7,89.9 7.2,88.6 
	8.1,85 4.7,83.4 5.9,79.8 2.7,77.8 4.2,74.4 1.2,72.1 3.1,68.8 0.3,66.1 2.5,63 "/>
<g id="logo_UQAM_2_">
	
		<image overflow="visible" opacity="0.2" width="95" height="36" xlink:href="E032D17B.png"  transform="matrix(1 0 0 1 13.5 43.2297)">
	</image>
	<g>
		<g>
			<path fill="#FFFFFF" d="M61.7,73.7c-1.8,0.2-3.1,0.4-5,0.7c-1.4-0.5-6.8-2.7-9.8-3.7c-7.8-0.1-10.3-5.5-10.3-10
				c0-5.2,3.5-10.3,10.8-10.3c7.7,0,10.9,5.1,10.9,10.3c0,4.6-3.4,8.7-7.2,9.5c0.4,0.1,0.3,0,1.3,0.3c0.6,0.2,7.9,2.6,9.3,3V73.7z
				 M47.5,52.2c-4.5,0-6.2,4.3-6.2,8.5c0,4.5,2.3,8.1,6.2,8.2c3.9,0,6.2-3.6,6.3-8.2C53.9,56.4,52.1,52.2,47.5,52.2z"/>
			<path fill="#FFFFFF" d="M64.5,64.5l-2.2,5.8h-3.3c1-2.4,8.2-18.6,8.6-19.5h2.2c0.6,1.2,8,17.8,8.8,19.5H74l-2.3-5.8H64.5z
				 M70.9,62.4l-2.8-7l-2.7,7H70.9z"/>
			<path fill="#FFFFFF" d="M92,63.9l-6.3-13.1H83l-2.7,19.5h3.2l1.2-12.8c0.5,0.7,5.8,12.2,6.1,12.9h1.3l5.8-12.9L99,70.3h4.6
				l-2.5-19.5h-2.8L92,63.9z"/>
			<path fill="#FFFFFF" d="M30.3,50.8c0,2.4,0,9.9,0,11c0,2.8-0.6,6.6-4.8,6.6c-2.7,0-4.7-1.5-4.7-5c0-1,0-12.1,0-12.5h-4.4
				c0,1.9,0,10.6,0,12.4c0,5,3.9,7.4,8.6,7.4c6.1,0,8.8-3.5,8.8-7.6c0-2.9,0-12.2,0-12.2H30.3z"/>
			<path fill="#FFFFFF" d="M59.3,46.3c1.7-0.2,3.5-0.5,4.7-0.7c1.1,0.4,7.8,2.9,9.2,3.3v0.2c-1.1,0.2-2,0.4-3.3,0.8
				c-1-0.3-9.6-3.1-10.5-3.4V46.3z"/>
		</g>
	</g>
</g>
<circle id="ligne_pointillee_1_" opacity="0.2" fill="none" stroke="#FFFFFF" stroke-linecap="round" stroke-miterlimit="10" stroke-dasharray="1,3" cx="60" cy="60" r="53.9"/>
</svg>
