<?xml version="1.0" encoding="utf-8"?>
<!-- Generator: Adobe Illustrator 16.0.0, SVG Export Plug-In . SVG Version: 6.00 Build 0)  -->
<!DOCTYPE svg PUBLIC "-//W3C//DTD SVG 1.1//EN" "http://www.w3.org/Graphics/SVG/1.1/DTD/svg11.dtd">
<svg version="1.1" id="Layer_1" xmlns="http://www.w3.org/2000/svg" xmlns:xlink="http://www.w3.org/1999/xlink" x="0px" y="0px"
	 width="16px" height="16px" viewBox="0 0 16 16" enable-background="new 0 0 16 16" xml:space="preserve">
<path id="bleu_etudiant_7_" fill="#00ADE6" d="M8.421,12.877c-0.197,0.201-0.437,0.303-0.717,0.303c-0.28,0-0.521-0.102-0.724-0.303
	c-0.201-0.202-0.303-0.438-0.303-0.71c0-0.281,0.102-0.521,0.305-0.717c0.202-0.198,0.442-0.296,0.722-0.296
	c0.28,0,0.52,0.101,0.717,0.302c0.197,0.202,0.296,0.438,0.296,0.711S8.618,12.675,8.421,12.877z M9.205,8.063
	C8.977,8.247,8.807,8.429,8.697,8.609C8.587,8.789,8.521,8.945,8.5,9.083C8.478,9.218,8.467,9.427,8.467,9.707
	c0,0.359-0.259,0.539-0.775,0.539c-0.272,0-0.461-0.061-0.566-0.182C7.022,9.943,6.969,9.714,6.969,9.378
	c0-0.813,0.294-1.469,0.881-1.97c0.025-0.025,0.139-0.116,0.34-0.271c0.202-0.155,0.343-0.272,0.421-0.35s0.166-0.196,0.264-0.356
	C8.971,6.271,9.02,6.109,9.02,5.945c0-0.285-0.108-0.503-0.328-0.655C8.474,5.14,8.189,5.064,7.84,5.064
	c-0.297,0-0.542,0.048-0.734,0.146c-0.191,0.097-0.318,0.204-0.38,0.321C6.664,5.648,6.581,5.755,6.477,5.853
	C6.372,5.949,6.24,5.998,6.083,5.998c-0.2,0-0.382-0.066-0.543-0.197C5.378,5.669,5.297,5.485,5.297,5.248
	c0-0.421,0.229-0.82,0.685-1.197c0.455-0.377,1.091-0.565,1.907-0.565c0.833,0,1.507,0.206,2.025,0.618s0.775,0.929,0.775,1.552
	C10.689,6.498,10.195,7.3,9.205,8.063z"/>
</svg>
