<?xml version="1.0" encoding="utf-8"?>
<!-- Generator: Adobe Illustrator 16.0.0, SVG Export Plug-In . SVG Version: 6.00 Build 0)  -->
<!DOCTYPE svg PUBLIC "-//W3C//DTD SVG 1.1//EN" "http://www.w3.org/Graphics/SVG/1.1/DTD/svg11.dtd">
<svg version="1.1" id="Layer_1" xmlns="http://www.w3.org/2000/svg" xmlns:xlink="http://www.w3.org/1999/xlink" x="0px" y="0px"
	 width="16px" height="16px" viewBox="0 0 16 16" enable-background="new 0 0 16 16" xml:space="preserve">
<path id="blanc_8_" fill="#FFFFFF" d="M10.218,12.193c-0.431,0.365-0.964,0.596-1.599,0.688v1.045c0,0.33-0.268,0.6-0.599,0.6
	s-0.599-0.27-0.599-0.6v-1.023c-0.613-0.06-1.154-0.221-1.622-0.488c-0.597-0.342-0.895-0.716-0.895-1.119
	c0-0.202,0.077-0.404,0.23-0.611c0.153-0.207,0.327-0.311,0.52-0.311c0.114,0,0.244,0.055,0.389,0.165
	c0.145,0.108,0.285,0.229,0.421,0.362c0.136,0.132,0.332,0.252,0.586,0.361c0.254,0.109,0.535,0.164,0.843,0.164
	c0.42,0,0.772-0.097,1.052-0.29c0.281-0.192,0.423-0.479,0.423-0.854c0-0.264-0.078-0.498-0.231-0.704
	C8.984,9.371,8.783,9.199,8.532,9.063c-0.25-0.136-0.524-0.268-0.823-0.395S7.11,8.398,6.808,8.24
	c-0.303-0.158-0.58-0.335-0.83-0.533s-0.452-0.461-0.606-0.79c-0.153-0.33-0.23-0.705-0.23-1.126c0-0.472,0.094-0.889,0.283-1.25
	c0.188-0.36,0.441-0.642,0.756-0.842c0.316-0.2,0.654-0.348,1.014-0.441c0.074-0.019,0.15-0.035,0.226-0.051V2.036
	c0-0.331,0.268-0.599,0.599-0.599s0.599,0.268,0.599,0.599v1.09c0.145,0.007,0.293,0.021,0.445,0.04
	C9.32,3.197,9.59,3.249,9.876,3.321c0.284,0.072,0.519,0.185,0.697,0.338c0.179,0.153,0.27,0.333,0.27,0.541
	c0,0.196-0.062,0.398-0.184,0.607c-0.123,0.209-0.29,0.313-0.5,0.313c-0.08,0-0.295-0.083-0.646-0.25
	C9.161,4.704,8.771,4.62,8.341,4.62c-0.474,0-0.841,0.09-1.1,0.27C6.982,5.07,6.853,5.318,6.853,5.634
	c0,0.255,0.105,0.477,0.316,0.666c0.212,0.186,0.473,0.34,0.785,0.459c0.311,0.118,0.649,0.268,1.014,0.447
	C9.331,7.386,9.67,7.582,9.98,7.792c0.312,0.21,0.572,0.516,0.783,0.915c0.211,0.398,0.316,0.867,0.316,1.402
	C11.081,11.01,10.792,11.704,10.218,12.193z"/>
</svg>
