<?xml version="1.0" encoding="utf-8"?>
<!-- Generator: Adobe Illustrator 18.1.1, SVG Export Plug-In . SVG Version: 6.00 Build 0)  -->
<svg version="1.1" id="Layer_1" xmlns="http://www.w3.org/2000/svg" xmlns:xlink="http://www.w3.org/1999/xlink" x="0px" y="0px"
	 width="16px" height="16px" viewBox="0 0 16 16" enable-background="new 0 0 16 16" xml:space="preserve">
<g>
	<path fill="none" d="M4,8l4,4l4-4h-2V1.6c0-0.3-1.2-0.4-2-0.4S6,1.4,6,1.6V8H4z"/>
	<path fill="#00ADE6" d="M16,7.7C16,7.7,16,7.7,16,7.7c0-0.2,0-0.3,0-0.3c0,0,0,0,0-0.1c0-0.1,0-0.2,0-0.3c0,0,0,0,0,0
		c0-0.1,0-0.2,0-0.3c0,0,0,0,0-0.1c0-0.1,0-0.2-0.1-0.3c0,0,0,0,0,0c0-0.1,0-0.2-0.1-0.3c0,0,0,0,0,0c0-0.1,0-0.2-0.1-0.3
		c0,0,0,0,0-0.1c0-0.1-0.1-0.2-0.1-0.3c0,0,0,0,0,0c0-0.1-0.1-0.2-0.1-0.3c0,0,0,0,0-0.1c0-0.1-0.1-0.2-0.1-0.3c0,0,0,0,0,0
		c0-0.1-0.1-0.2-0.1-0.2c0,0,0,0,0,0c0-0.1-0.1-0.2-0.1-0.2c0,0,0,0,0,0C15,4.2,15,4.1,14.9,4c0,0,0,0,0,0c0-0.1-0.1-0.2-0.1-0.2
		c0,0,0,0,0,0c0-0.1-0.1-0.2-0.2-0.2c0,0,0,0,0,0c-0.1-0.1-0.1-0.2-0.2-0.2c0,0,0,0,0,0c-0.1-0.1-0.1-0.2-0.2-0.2c0,0,0,0,0,0
		c-0.1-0.1-0.1-0.1-0.2-0.2c0,0,0,0,0,0c-0.1-0.1-0.1-0.1-0.2-0.2c0,0,0,0,0,0c-0.1-0.1-0.1-0.1-0.2-0.2c0,0,0,0,0,0
		c-0.1-0.1-0.3-0.3-0.4-0.4c0,0,0,0,0,0c-0.1-0.1-0.1-0.1-0.2-0.2c0,0,0,0,0,0c-0.2-0.1-0.3-0.2-0.5-0.3c0,0,0,0,0,0
		c-0.1-0.1-0.2-0.1-0.2-0.2c0,0,0,0,0,0C12,1.1,11.9,1,11.9,1c0,0,0,0,0,0c-0.1,0-0.2-0.1-0.3-0.1c0,0,0,0,0,0
		c-0.2-0.1-0.4-0.2-0.5-0.2c0,0,0,0,0,0c-0.1,0-0.2-0.1-0.3-0.1c0,0,0,0,0,0c-0.1,0-0.2-0.1-0.3-0.1c0,0,0,0,0,0l0,0
		C9.6,0.1,8.8,0,8,0S6.4,0.1,5.6,0.4l0,0c0,0,0,0,0,0c-0.1,0-0.2,0.1-0.3,0.1c0,0,0,0,0,0C5.2,0.5,5.1,0.5,5,0.6c0,0,0,0,0,0
		C4.8,0.7,4.6,0.7,4.4,0.8c0,0,0,0,0,0C4.3,0.9,4.2,0.9,4.2,1c0,0,0,0,0,0C4.1,1,4,1.1,3.9,1.1c0,0,0,0,0,0C3.8,1.2,3.7,1.2,3.6,1.3
		c0,0,0,0,0,0C3.4,1.4,3.3,1.5,3.1,1.7c0,0,0,0,0,0C3,1.7,2.9,1.8,2.9,1.9c0,0,0,0,0,0C2.7,2,2.6,2.1,2.4,2.3c0,0,0,0,0,0
		C2.3,2.4,2.3,2.4,2.2,2.5c0,0,0,0,0,0C2.1,2.6,2,2.7,2,2.7c0,0,0,0,0,0C1.9,2.8,1.8,2.9,1.8,3c0,0,0,0,0,0C1.7,3.1,1.6,3.1,1.6,3.2
		c0,0,0,0,0,0C1.5,3.3,1.5,3.4,1.4,3.5c0,0,0,0,0,0C1.3,3.6,1.3,3.6,1.2,3.7c0,0,0,0,0,0c0,0.1-0.1,0.2-0.1,0.2c0,0,0,0,0,0
		C1,4.1,1,4.2,0.9,4.3c0,0,0,0,0,0c0,0.1-0.1,0.2-0.1,0.2c0,0,0,0,0,0c0,0.1-0.1,0.2-0.1,0.2c0,0,0,0,0,0c0,0.1-0.1,0.2-0.1,0.3
		c0,0,0,0,0,0.1c0,0.1-0.1,0.2-0.1,0.3c0,0,0,0,0,0c0,0.1-0.1,0.2-0.1,0.3c0,0,0,0,0,0.1c0,0.1-0.1,0.2-0.1,0.3c0,0,0,0,0,0
		c0,0.1,0,0.2-0.1,0.3c0,0,0,0,0,0c0,0.1,0,0.2-0.1,0.3c0,0,0,0,0,0.1c0,0.1,0,0.2,0,0.3c0,0,0,0,0,0c0,0.1,0,0.2,0,0.3
		c0,0,0,0,0,0.1c0,0.1,0,0.2,0,0.3c0,0,0,0,0,0.1C0,7.8,0,7.9,0,8c0,4.4,3.6,8,8,8s8-3.6,8-8C16,7.9,16,7.8,16,7.7z M8,1.2
		c0.8,0,2,0.2,2,0.4V8h2l-4,4L4,8h2V1.6C6,1.4,7.2,1.2,8,1.2z"/>
</g>
</svg>
