<?xml version="1.0" encoding="utf-8"?>
<!-- Generator: Adobe Illustrator 18.1.1, SVG Export Plug-In . SVG Version: 6.00 Build 0)  -->
<svg version="1.1" id="Layer_1" xmlns="http://www.w3.org/2000/svg" xmlns:xlink="http://www.w3.org/1999/xlink" x="0px" y="0px"
	 width="15px" height="15px" viewBox="0 0 15 15" enable-background="new 0 0 15 15" xml:space="preserve">
<g>
	<path fill="#0079A0" d="M15,6h-3v2h0.5C12.8,8,13,8.2,13,8.5S12.8,9,12.5,9H12h-0.5h-8H3H2.5C2.2,9,2,8.8,2,8.5S2.2,8,2.5,8H3V6H0
		v8h3v-2v-0.5h0.5h8H12V12v2h3V6z"/>
	<rect x="3.5" y="12" fill="#0079A0" width="8" height="3"/>
	<polygon fill="#0079A0" points="11.5,2.5 10,1 3.5,1 3.5,8.5 11.5,8.5 	"/>
</g>
</svg>
