<?xml version="1.0" encoding="utf-8"?>
<!-- Generator: Adobe Illustrator 18.1.1, SVG Export Plug-In . SVG Version: 6.00 Build 0)  -->
<svg version="1.1" id="Layer_1" xmlns="http://www.w3.org/2000/svg" xmlns:xlink="http://www.w3.org/1999/xlink" x="0px" y="0px"
	 width="100px" height="92px" viewBox="0 0 100 92" enable-background="new 0 0 100 92" xml:space="preserve">
<g>
	<path id="cell_horizontal_6_" fill="#004E68" d="M100,58.3c0-4.6-3.7-8.3-8.3-8.3H28.3c-4.6,0-8.3,3.7-8.3,8.3v25.3
		c0,4.6,3.7,8.3,8.3,8.3h63.3c4.6,0,8.3-3.7,8.3-8.3V58.3z M94,66.4v9.5c0,0.7-0.8,1.4-1.5,1.4S91,76.6,91,75.9v-9.5
		c0-0.7,0.8-1.4,1.5-1.4S94,65.6,94,66.4z M24,71.1c0-1.6,1.3-2.9,2.9-2.9c1.6,0,2.9,1.3,2.9,2.9s-1.3,2.9-2.9,2.9
		C25.4,74.1,24,72.7,24,71.1z M32,88V54h55v34H32z"/>
	<path id="plus_4_" fill="#004E68" d="M68.2,69H62v-6.2c0-1.2-0.8-2.1-2-2.1s-2,0.9-2,2.1V69h-6.4c-1.2,0-2.1,0.8-2.1,2s0.9,2,2.1,2
		H58v6.5c0,1.2,0.8,2.1,2,2.1s2-0.9,2-2.1V73h6.2c1.2,0,2.1-0.8,2.1-2S69.4,69,68.2,69z"/>
	<path opacity="0.25" fill="#004E68" d="M4,66V12h33v35h5V8c0-4.6-4.2-8-8.8-8h-25C3.6,0,0,3.4,0,8v62.5C0,75.2,3.6,79,8.2,79H17V66
		H4z M16,6h9.5c0.7,0,1.4,0.3,1.4,1s-0.6,1-1.4,1H16c-0.7,0-1.4-0.3-1.4-1S15.2,6,16,6z"/>
	<path fill="#004E68" d="M84.1,36.8l-1.8-13.3c-0.1-0.8-1.1-1-1.5-0.3l-1.8,3c-5.5-7.3-12.9-13-21.3-16.6c-0.4-0.2-0.9,0-1.1,0.5
		L56,11.5c-0.2,0.4,0,0.9,0.4,1.1c7.7,3.4,14.5,8.6,19.6,15.2l-3.4,0c-0.8,0-1.1,1-0.5,1.5l10.6,8.3C83.3,38,84.2,37.5,84.1,36.8z"
		/>
</g>
</svg>
