<?xml version="1.0" encoding="utf-8"?>
<!-- Generator: Adobe Illustrator 16.0.0, SVG Export Plug-In . SVG Version: 6.00 Build 0)  -->
<!DOCTYPE svg PUBLIC "-//W3C//DTD SVG 1.1//EN" "http://www.w3.org/Graphics/SVG/1.1/DTD/svg11.dtd">
<svg version="1.1" id="Layer_1" xmlns="http://www.w3.org/2000/svg" xmlns:xlink="http://www.w3.org/1999/xlink" x="0px" y="0px"
	 width="32px" height="31.1px" viewBox="0 0 32 31.1" enable-background="new 0 0 32 31.1" xml:space="preserve">
<path fill="#0B5B74" d="M31.9,30.6L16.2,0.2c-0.1-0.301-0.3-0.301-0.5,0L0.1,30.6l0,0c-0.1,0.3,0,0.5,0.3,0.5h31.3
	C32,31.1,32.1,30.9,31.9,30.6z M16,26.9c-0.9,0-1.6-0.699-1.6-1.6s0.7-1.6,1.6-1.6c0.9,0,1.6,0.699,1.6,1.6S16.9,26.9,16,26.9z
	 M17.6,16.4l-1,5.2h-1l-1-5.2v-6.3h3.1v6.3H17.6z"/>
</svg>
