<?xml version="1.0" encoding="utf-8"?>
<!-- Generator: Adobe Illustrator 16.0.3, SVG Export Plug-In . SVG Version: 6.00 Build 0)  -->
<!DOCTYPE svg PUBLIC "-//W3C//DTD SVG 1.1//EN" "http://www.w3.org/Graphics/SVG/1.1/DTD/svg11.dtd">
<svg version="1.1" id="Layer_2_copy" xmlns="http://www.w3.org/2000/svg" xmlns:xlink="http://www.w3.org/1999/xlink" x="0px"
	 y="0px" width="16px" height="16px" viewBox="0 0 16 16" enable-background="new 0 0 16 16" xml:space="preserve">
<path fill="#FFFFFF" d="M8,0C3.563,0,0,3.563,0,8s3.563,8,8,8s8-3.563,8-8S12.437,0,8,0z M8,2.982c0.618,0,1.127,0.509,1.127,1.127
	S8.618,5.236,8,5.236S6.873,4.727,6.873,4.109S7.382,2.982,8,2.982z M11.673,6.4L9.127,6.545c-0.109,0-0.218,0.109-0.218,0.218
	c0,0.509,0,1.272,0,1.636C8.945,9.091,9.346,10.909,10,12.072c0.109,0.219,0.072,0.473-0.146,0.619
	c-0.073,0.035-0.146,0.072-0.255,0.072c-0.145,0-0.326-0.072-0.399-0.219c-0.546-0.981-0.909-2.254-1.055-3.163
	c-0.037,0-0.073,0-0.109,0c0,0,0,0-0.036,0s-0.073,0-0.109,0c-0.182,0.909-0.509,2.182-1.055,3.163
	c-0.073,0.146-0.254,0.219-0.4,0.219c-0.073,0-0.146-0.037-0.218-0.072c-0.218-0.109-0.291-0.4-0.182-0.619
	c0.655-1.163,1.055-3.018,1.091-3.708c0.036-0.4,0.036-1.127,0-1.637c0-0.109-0.109-0.218-0.218-0.218L4.327,6.364
	c-0.254,0-0.436-0.218-0.436-0.473c0-0.255,0.218-0.437,0.473-0.437l3.6,0.218c0.036,0,0.036,0,0.072,0l3.601-0.218
	c0.254,0,0.473,0.182,0.473,0.437C12.146,6.182,11.928,6.4,11.673,6.4z"/>
</svg>
