<?xml version="1.0" encoding="utf-8"?>
<!-- Generator: Adobe Illustrator 18.1.1, SVG Export Plug-In . SVG Version: 6.00 Build 0)  -->
<svg version="1.1" id="Layer_1" xmlns="http://www.w3.org/2000/svg" xmlns:xlink="http://www.w3.org/1999/xlink" x="0px" y="0px"
	 width="16px" height="16px" viewBox="0 0 16 16" enable-background="new 0 0 16 16" xml:space="preserve">
<g>
	<path fill="#00ADE6" d="M0.3,8.2c0-1.6,0.3-3,0.8-4.2c0.6-1.2,1.4-2.2,2.6-2.9C5,0.4,6.5,0,8.2,0c2.3,0,4.2,0.7,5.5,2
		c1.3,1.3,2,3.2,2,5.5c0,1.5-0.3,2.7-0.9,3.7c-0.6,1-1.4,1.5-2.5,1.5c-0.6,0-1.1-0.2-1.5-0.5c-0.4-0.3-0.7-0.7-0.8-1.2
		c-0.8,1-1.7,1.5-2.8,1.5c-0.8,0-1.5-0.2-2.1-0.7c-0.6-0.4-0.9-1.1-0.9-2c0-1.9,1.5-2.8,4.6-2.8h0.7V6.8c0-1.1-0.6-1.6-1.9-1.6
		c-0.6,0-1.1,0.1-1.5,0.3C5.7,5.7,5.5,5.8,5.4,5.8c-0.2,0-0.4-0.1-0.5-0.4C4.8,5.2,4.7,5,4.7,4.8c0-0.4,0.3-0.8,1-1.1
		s1.4-0.4,2.2-0.4c1,0,1.9,0.3,2.6,0.8c0.7,0.5,1.1,1.3,1.1,2.3v3.8c0.1,0.7,0.4,1.1,0.8,1.1c0.9,0,1.3-1.1,1.3-3.2
		c0-4.2-1.9-6.3-5.6-6.3c-1.1,0-2.1,0.2-2.9,0.5C4.5,2.5,3.9,3,3.5,3.7C3,4.3,2.7,5,2.5,5.7S2.2,7.3,2.2,8.2c0,0.8,0.1,1.6,0.3,2.3
		c0.2,0.7,0.5,1.3,0.8,1.9c0.4,0.6,0.9,1,1.6,1.4c0.7,0.3,1.5,0.5,2.5,0.5c0.7,0,1.4-0.1,2-0.3c0.6-0.2,1-0.3,1-0.3
		c0.2,0,0.4,0.1,0.5,0.3c0.1,0.2,0.2,0.4,0.2,0.6c0,0.4-0.5,0.8-1.4,1C8.9,15.8,8,16,7.1,16c-1.9,0-3.5-0.7-4.8-2
		C1,12.6,0.3,10.7,0.3,8.2z M6.7,9.9c0,0.3,0.1,0.6,0.3,0.8C7.1,10.9,7.4,11,7.7,11c0.5,0,1-0.2,1.4-0.6C9.5,10,9.7,9.6,9.7,9.1V8.4
		H9.2C7.5,8.4,6.7,8.9,6.7,9.9z"/>
</g>
</svg>
