<?xml version="1.0" encoding="utf-8"?>
<!-- Generator: Adobe Illustrator 18.1.1, SVG Export Plug-In . SVG Version: 6.00 Build 0)  -->
<svg version="1.1" id="Layer_2_copy" xmlns="http://www.w3.org/2000/svg" xmlns:xlink="http://www.w3.org/1999/xlink" x="0px"
	 y="0px" viewBox="0 0 44 44" enable-background="new 0 0 44 44" xml:space="preserve">
<path fill="#FFFFFF" d="M22,0C9.8,0,0,9.8,0,22s9.8,22,22,22s22-9.8,22-22S34.2,0,22,0z M22,8.2c1.7,0,3.1,1.4,3.1,3.1
	s-1.4,3.1-3.1,3.1s-3.1-1.4-3.1-3.1S20.3,8.2,22,8.2z M32.1,17.6L25.1,18c-0.3,0-0.6,0.3-0.6,0.6c0,1.4,0,3.5,0,4.5
	c0.1,1.9,1.2,6.9,3,10.1c0.3,0.6,0.2,1.3-0.4,1.7c-0.2,0.1-0.4,0.2-0.7,0.2c-0.4,0-0.9-0.2-1.1-0.6c-1.5-2.7-2.5-6.2-2.9-8.7
	c-0.1,0-0.2,0-0.3,0c0,0,0,0-0.1,0c-0.1,0-0.2,0-0.3,0c-0.5,2.5-1.4,6-2.9,8.7c-0.2,0.4-0.7,0.6-1.1,0.6c-0.2,0-0.4-0.1-0.6-0.2
	c-0.6-0.3-0.8-1.1-0.5-1.7c1.8-3.2,2.9-8.3,3-10.2c0.1-1.1,0.1-3.1,0-4.5c0-0.3-0.3-0.6-0.6-0.6l-7.1-0.4c-0.7,0-1.2-0.6-1.2-1.3
	c0-0.7,0.6-1.2,1.3-1.2l9.9,0.6c0.1,0,0.1,0,0.2,0l9.9-0.6c0.7,0,1.3,0.5,1.3,1.2C33.4,17,32.8,17.6,32.1,17.6z"/>
</svg>
