<?xml version="1.0" encoding="utf-8"?>
<!-- Generator: Adobe Illustrator 16.0.0, SVG Export Plug-In . SVG Version: 6.00 Build 0)  -->
<!DOCTYPE svg PUBLIC "-//W3C//DTD SVG 1.1//EN" "http://www.w3.org/Graphics/SVG/1.1/DTD/svg11.dtd">
<svg version="1.1" id="LOGOS" xmlns="http://www.w3.org/2000/svg" xmlns:xlink="http://www.w3.org/1999/xlink" x="0px" y="0px"
	 width="473.74px" height="72.65px" viewBox="0 0 473.74 72.65" enable-background="new 0 0 473.74 72.65" xml:space="preserve">
<g>
	<g>
		<g>
			<path d="M43.157,8.89c-6.289-0.033-8.613,5.894-8.641,11.792c-0.035,6.286,3.23,11.258,8.555,11.293
				c5.455,0.037,8.563-4.953,8.771-11.304C52.036,14.711,49.51,8.919,43.157,8.89 M62.84,38.646
				c-2.453,0.274-4.318,0.522-6.873,1.012c-1.977-0.646-9.43-3.768-13.557-5.061c-10.867-0.101-14.264-7.646-14.256-13.888
				c0.012-7.175,4.799-14.263,14.976-14.255c10.696,0.006,15.133,7.113,15.104,14.222C58.209,27.01,53.5,32.758,48.2,33.791
				c0.57,0.101,0.467-0.049,1.779,0.373c0.852,0.273,10.992,3.545,12.861,4.156V38.646z"/>
			<path d="M75.52,23.072l-3.914-9.704l-3.707,9.704H75.52z M66.756,25.984l-3.066,7.973h-4.545
				c1.352-3.311,11.367-25.749,11.859-26.978h3.108c0.857,1.59,11.031,24.589,12.133,26.978h-6.352l-3.215-7.973H66.756z"/>
			<path d="M104.756,25.17L96.01,6.979h-3.678l-3.686,26.978h4.463l1.596-17.758c0.673,0.979,8.053,16.941,8.416,17.799h1.775
				l8.094-17.799l1.535,17.758h6.389l-3.463-26.978h-3.922L104.756,25.17z"/>
			<path d="M19.256,6.979V22.15c0,3.887-0.85,9.096-6.648,9.104c-3.697,0.004-6.543-2.01-6.545-6.977
				c-0.006-1.346,0-16.741,0-17.298H0.004c0,2.698-0.009,14.729,0,17.179c0.02,6.973,5.389,10.225,11.866,10.279
				c8.414,0.065,12.162-4.813,12.175-10.556c0.012-3.985,0-16.902,0-16.902H19.256z"/>
			<path d="M59.514,0.747c2.418-0.317,4.879-0.748,6.512-1.012c1.516,0.51,10.863,4.074,12.699,4.627v0.262
				c-1.469,0.242-2.748,0.531-4.629,1.084C72.674,5.245,60.75,1.376,59.514,1.009V0.747z"/>
			<rect x="136.459" y="-0.265" width="1" height="71.192"/>
		</g>
	</g>
</g>
<g>
	<path d="M157.25,25.156c0,1.293-0.076,5.211,4.983,5.211c3.196,0,5.212-1.521,5.212-3.842c0-2.436-1.712-2.854-5.212-3.69
		c-6.542-1.636-10.118-3.576-10.118-8.331c0-4.526,3.233-8.521,10.879-8.521c2.853,0,6.238,0.646,8.292,3.232
		c1.56,1.979,1.56,4.186,1.56,5.098h-5.668c-0.076-0.951-0.38-4.185-4.451-4.185c-2.739,0-4.526,1.483-4.526,3.729
		c0,2.548,2.016,3.005,5.972,3.994c4.755,1.141,9.435,2.435,9.435,7.798c0,4.944-4.108,8.938-11.717,8.938
		c-10.537,0-10.613-6.771-10.651-9.434h6.01V25.156z"/>
	<path d="M181.133,25.764c0,1.255,0,5.136,3.918,5.136c1.408,0,2.815-0.533,3.348-2.663h5.135c-0.076,0.913-0.266,2.549-1.826,4.185
		c-1.408,1.483-3.918,2.244-6.733,2.244c-1.636,0-4.755-0.304-6.771-2.396c-1.75-1.826-2.473-4.413-2.473-7.494
		c0-3.12,0.761-6.849,3.994-9.092c1.484-0.989,3.31-1.599,5.402-1.599c2.739,0,6.01,1.065,7.76,4.642
		c1.293,2.625,1.217,5.438,1.141,7.037H181.133z M188.284,22.227c0-0.875-0.076-4.3-3.348-4.3c-2.473,0-3.5,2.055-3.614,4.3H188.284
		z"/>
	<path d="M196.937,19.45c0-0.913-0.152-3.69-0.267-4.793h5.288l0.114,3.689c0.723-1.637,1.978-3.956,6.543-3.729v5.059
		c-5.706-0.532-6.048,2.396-6.048,4.793v9.473h-5.63V19.45L196.937,19.45z"/>
	<path d="M215.613,14.732l4.336,13.048l4.413-13.048h5.44l-6.923,19.21h-6.239l-7.038-19.21H215.613z"/>
	<path d="M231.694,6.478h6.011v4.906h-6.011V6.478z M231.884,14.694h5.631v19.249h-5.631V14.694z"/>
	<path d="M251.741,21.542c-0.076-0.685-0.305-3.538-2.473-3.538c-2.664,0-2.968,4.032-2.968,6.125c0,1.065,0.114,4.489,1.408,5.896
		c0.533,0.569,1.103,0.646,1.521,0.646c0.609,0,2.358-0.266,2.588-3.689h5.554c-0.076,1.483-0.267,3.804-2.474,5.668
		c-1.369,1.179-3.08,1.788-5.478,1.788c-2.548,0-4.793-0.571-6.542-2.549c-1.674-1.94-2.436-4.489-2.436-7.57
		c0-8.75,6.43-9.967,8.978-9.967c3.576,0,7.798,1.978,7.836,7.189L251.741,21.542L251.741,21.542z"/>
	<path d="M264.558,25.764c0,1.255,0,5.136,3.918,5.136c1.408,0,2.815-0.533,3.349-2.663h5.135c-0.076,0.913-0.267,2.549-1.826,4.185
		c-1.407,1.483-3.918,2.244-6.733,2.244c-1.635,0-4.754-0.304-6.771-2.396c-1.75-1.826-2.473-4.413-2.473-7.494
		c0-3.12,0.761-6.849,3.993-9.092c1.484-0.989,3.311-1.599,5.402-1.599c2.739,0,6.01,1.065,7.76,4.642
		c1.293,2.625,1.218,5.438,1.142,7.037H264.558z M271.709,22.227c0-0.875-0.076-4.3-3.349-4.3c-2.473,0-3.5,2.055-3.613,4.3H271.709
		z"/>
	<path d="M284.425,28.389c0.076,1.217,0.838,2.625,3.195,2.625c2.016,0,2.967-1.142,2.967-2.282c0-0.875-0.456-1.561-2.662-2.168
		l-3.5-0.951c-1.56-0.457-4.869-1.408-4.869-5.326c0-3.728,3.424-6.011,8.407-6.011c3.956,0,7.151,1.826,7.304,5.668h-5.136
		c-0.151-2.13-1.864-2.282-2.739-2.282c-1.521,0-2.662,0.723-2.662,1.902c0,1.293,0.951,1.56,2.625,2.016l3.461,0.951
		c3.5,0.951,5.136,2.739,5.136,5.364c0,3.31-2.853,6.619-8.825,6.619c-2.473,0-4.831-0.533-6.581-2.359
		c-1.255-1.331-1.37-2.854-1.407-3.766H284.425z"/>
	<path d="M308.92,18.727h-2.891v-3.995h2.891v-2.625c0-3.386,1.104-6.125,6.581-6.125c0.418,0,1.483,0,3.043,0.189v3.918
		c-0.571-0.075-0.723-0.113-1.179-0.113c-2.854,0-2.854,1.521-2.854,2.511v2.244h3.538v3.995h-3.538v15.216h-5.592V18.727z
		 M320.902,6.478h6.011v4.906h-6.011V6.478z M321.093,14.694h5.63v19.249h-5.63V14.694z"/>
	<path d="M330.745,18.156c0-0.076,0-2.168-0.114-3.5h5.402l0.151,2.891c0.533-0.875,2.055-3.347,6.238-3.347
		c3.768,0,5.364,2.282,5.858,3.614c0.418,1.179,0.533,2.168,0.533,5.744v10.385h-5.744V21.998c0-0.799,0-1.482-0.305-2.092
		c-0.418-0.837-1.293-1.636-2.738-1.636c-1.218,0-2.32,0.569-2.93,1.482c-0.343,0.495-0.685,1.445-0.685,2.93v11.26h-5.668V18.156
		L330.745,18.156z"/>
	<path d="M364.283,33.943c-0.19-1.179-0.19-2.054-0.19-2.625c-2.131,3.082-4.679,3.082-5.744,3.082
		c-2.776,0-4.031-0.799-4.793-1.521c-1.141-1.142-1.674-2.701-1.674-4.223c0-1.522,0.533-4.336,4.07-5.972
		c2.357-1.065,5.744-1.065,7.607-1.065c0-1.255-0.037-1.864-0.266-2.548c-0.495-1.408-1.978-1.598-2.511-1.598
		c-0.799,0-1.636,0.342-2.13,1.064c-0.419,0.646-0.419,1.255-0.419,1.712h-5.516c0.038-1.026,0.152-3.082,2.168-4.526
		c1.75-1.256,3.994-1.561,5.82-1.561c1.598,0,4.945,0.267,6.847,2.473c1.293,1.561,1.332,3.843,1.332,4.718l0.038,7.722
		c0,1.636,0.114,3.271,0.456,4.869L364.283,33.943L364.283,33.943z M357.36,28.009c0,1.293,0.874,2.739,2.738,2.739
		c1.027,0,1.863-0.495,2.396-1.103c0.989-1.218,1.064-2.701,1.064-4.755C359.946,24.585,357.36,25.726,357.36,28.009z"/>
	<path d="M372.875,18.156c0-0.076,0-2.168-0.114-3.5h5.402l0.152,2.891c0.532-0.875,2.054-3.347,6.238-3.347
		c3.767,0,5.364,2.282,5.858,3.614c0.418,1.179,0.532,2.168,0.532,5.744v10.385H385.2V21.998c0-0.799,0-1.482-0.304-2.092
		c-0.418-0.837-1.293-1.636-2.739-1.636c-1.217,0-2.32,0.569-2.929,1.482c-0.343,0.495-0.686,1.445-0.686,2.93v11.26h-5.668V18.156
		L372.875,18.156z"/>
	<path d="M405.244,21.542c-0.076-0.685-0.304-3.538-2.473-3.538c-2.663,0-2.968,4.032-2.968,6.125c0,1.065,0.114,4.489,1.408,5.896
		c0.532,0.569,1.104,0.646,1.521,0.646c0.608,0,2.358-0.266,2.587-3.689h5.554c-0.076,1.483-0.266,3.804-2.473,5.668
		c-1.369,1.179-3.081,1.788-5.478,1.788c-2.549,0-4.794-0.571-6.543-2.549c-1.674-1.94-2.435-4.489-2.435-7.57
		c0-8.75,6.429-9.967,8.978-9.967c3.576,0,7.798,1.978,7.836,7.189L405.244,21.542L405.244,21.542z"/>
	<path d="M413.375,6.478h6.011v4.906h-6.011V6.478z M413.565,14.694h5.63v19.249h-5.63V14.694z"/>
	<path d="M427.651,25.764c0,1.255,0,5.136,3.918,5.136c1.407,0,2.814-0.533,3.348-2.663h5.135c-0.076,0.913-0.266,2.549-1.826,4.185
		c-1.407,1.483-3.918,2.244-6.732,2.244c-1.636,0-4.755-0.304-6.771-2.396c-1.75-1.826-2.473-4.413-2.473-7.494
		c0-3.12,0.761-6.849,3.994-9.092c1.483-0.989,3.31-1.599,5.401-1.599c2.739,0,6.011,1.065,7.761,4.642
		c1.293,2.625,1.217,5.438,1.141,7.037H427.651z M434.802,22.227c0-0.875-0.076-4.3-3.348-4.3c-2.473,0-3.5,2.055-3.614,4.3H434.802
		z"/>
	<path d="M443.455,19.45c0-0.913-0.152-3.69-0.266-4.793h5.287l0.113,3.689c0.723-1.637,1.979-3.956,6.543-3.729v5.059
		c-5.706-0.532-6.048,2.396-6.048,4.793v9.473h-5.63V19.45z"/>
	<path d="M461.59,28.389c0.077,1.217,0.837,2.625,3.196,2.625c2.016,0,2.967-1.142,2.967-2.282c0-0.875-0.457-1.561-2.663-2.168
		l-3.5-0.951c-1.559-0.457-4.869-1.408-4.869-5.326c0-3.728,3.425-6.011,8.407-6.011c3.956,0,7.151,1.826,7.304,5.668h-5.136
		c-0.151-2.13-1.864-2.282-2.739-2.282c-1.521,0-2.662,0.723-2.662,1.902c0,1.293,0.95,1.56,2.625,2.016l3.462,0.951
		c3.5,0.951,5.135,2.739,5.135,5.364c0,3.31-2.854,6.619-8.825,6.619c-2.473,0-4.832-0.533-6.581-2.359
		c-1.255-1.331-1.37-2.854-1.408-3.766H461.59z"/>
	<path d="M154.364,55.839v9.352c0,1.61,0.355,2.279,0.669,2.72c0.941,1.255,2.406,1.485,3.451,1.485c4.08,0,4.08-3.201,4.08-4.289
		v-9.269h2.029v9.31c0,0.815-0.021,2.511-1.234,4.017c-1.485,1.862-3.787,2.092-4.875,2.092c-1.422,0-3.933-0.396-5.334-2.405
		c-0.46-0.669-0.879-1.549-0.879-3.809v-9.205h2.093V55.839z"/>
	<path d="M167.648,61.654l-0.021-1.213h1.966l0.021,1.694c0.23-0.438,0.983-1.903,3.368-1.903c0.941,0,3.807,0.354,3.807,3.577
		v7.134h-2.008V64.27c0-0.69-0.084-1.318-0.565-1.799c-0.502-0.481-1.192-0.712-1.862-0.712c-1.423,0-2.741,1.025-2.741,3.139v6.046
		h-1.966L167.648,61.654L167.648,61.654z"/>
	<path d="M179.462,55.88h2.364v2.155h-2.364V55.88z M179.671,60.441h1.967v10.502h-1.967V60.441z"/>
	<path d="M183.357,60.441h2.197l3.347,8.326l3.264-8.326h2.175l-4.602,10.502h-1.987L183.357,60.441z"/>
	<path d="M196.958,66.048c-0.042,2.176,0.858,3.786,3.013,3.786c1.276,0,2.301-0.669,2.468-2.175h1.967
		c-0.063,0.523-0.146,1.38-0.9,2.196c-0.46,0.522-1.505,1.401-3.619,1.401c-3.305,0-4.874-2.05-4.874-5.376
		c0-2.07,0.418-3.787,2.071-4.937c1.004-0.711,2.26-0.774,2.866-0.774c4.707,0,4.603,4.163,4.561,5.879L196.958,66.048
		L196.958,66.048z M202.501,64.667c0.021-1.004-0.167-3.096-2.594-3.096c-1.276,0-2.824,0.773-2.866,3.096H202.501z"/>
	<path d="M206.919,62.575c0-0.711-0.042-1.443-0.104-2.134h1.987l0.042,2.028c0.376-1.464,1.632-1.944,2.51-2.07
		c0.586-0.084,1.025-0.063,1.359-0.042v1.925c-0.104-0.042-0.23-0.063-0.376-0.084c-0.147-0.021-0.335-0.021-0.565-0.021
		c-2.322,0-2.866,1.382-2.866,3.181v5.585h-1.988L206.919,62.575L206.919,62.575z"/>
	<path d="M215.904,67.826c-0.021,0.795,0.397,1.904,2.301,1.904c0.816,0,1.422-0.146,1.841-0.669
		c0.208-0.272,0.334-0.627,0.334-0.983c0-1.025-0.732-1.213-2.301-1.569c-2.197-0.502-4.038-0.94-4.038-3.138
		c0-1.925,1.673-3.18,4.1-3.18c1.318,0,3.159,0.377,3.787,1.632c0.272,0.586,0.272,1.088,0.272,1.527h-2.008
		c0.062-1.591-1.318-1.716-2.029-1.716c-0.293,0-2.134,0-2.134,1.507c0,0.962,0.941,1.191,1.485,1.339
		c2.908,0.689,3.535,0.857,4.163,1.443c0.585,0.543,0.795,1.276,0.795,1.945c0,1.171-0.648,2.176-1.423,2.657
		c-0.92,0.564-2.029,0.711-3.117,0.711c-2.134,0-4.122-0.879-4.101-3.41L215.904,67.826L215.904,67.826z"/>
	<path d="M224.509,55.88h2.364v2.155h-2.364V55.88z M224.718,60.441h1.966v10.502h-1.966V60.441z"/>
	<path d="M228.396,60.399h1.861v-2.197l1.946-0.627v2.824h2.343v1.442h-2.343v6.298c0,0.522,0,1.4,1.401,1.4
		c0.397,0,0.774-0.063,0.941-0.104v1.526c-0.355,0.063-0.92,0.125-1.631,0.125c-1.799,0-2.658-0.522-2.658-2.237v-7.009h-1.861
		L228.396,60.399L228.396,60.399z"/>
	<path d="M237.597,66.048c-0.043,2.176,0.857,3.786,3.012,3.786c1.276,0,2.302-0.669,2.469-2.175h1.967
		c-0.063,0.523-0.146,1.38-0.9,2.196c-0.459,0.522-1.506,1.401-3.619,1.401c-3.304,0-4.874-2.05-4.874-5.376
		c0-2.07,0.418-3.787,2.071-4.937c1.004-0.711,2.26-0.774,2.866-0.774c4.707,0,4.603,4.163,4.562,5.879L237.597,66.048
		L237.597,66.048z M243.14,64.667c0.021-1.004-0.166-3.096-2.594-3.096c-1.275,0-2.824,0.773-2.865,3.096H243.14z M243.036,55.462
		l-2.532,3.013h-1.358l1.715-3.013H243.036z"/>
	<path d="M260.211,55.86h1.966v13.409c0,0.229,0.042,1.13,0.084,1.674h-1.967l-0.042-1.674c-0.167,0.293-0.397,0.731-0.94,1.108
		c-0.858,0.586-1.883,0.774-2.595,0.774c-1.401,0-4.519-0.732-4.519-5.334c0-3.996,2.279-5.732,4.749-5.732
		c2.259,0,3.013,1.339,3.264,1.778V55.86L260.211,55.86z M259.479,62.617c-0.418-0.544-1.192-1.067-2.301-1.067
		c-2.888,0-2.888,3.494-2.888,4.205c0,1.862,0.481,4.018,2.888,4.018c3.096,0,3.096-3.41,3.096-4.227
		C260.272,64.019,259.918,63.182,259.479,62.617z"/>
	<path d="M266.933,60.441v6.757c0,1.025,0.23,2.322,2.238,2.322c0.982,0,1.904-0.335,2.469-1.172
		c0.439-0.627,0.439-1.443,0.439-1.967v-5.94h2.029v8.536c0,0.209,0.041,1.38,0.063,1.966h-2.05l-0.042-1.799
		c-0.376,0.731-1.087,1.903-3.348,1.903c-2.594,0-3.807-1.484-3.807-3.556v-7.05L266.933,60.441L266.933,60.441z"/>
	<path d="M296.744,70.943h-2.511c-0.293,0-1.799,0.021-2.803,0.104c-1.025,0.104-2.238,0.209-2.742,0.209
		c-3.598,0-6.506-2.405-6.506-7.761c0-1.799,0.314-4.226,1.883-5.962c1.276-1.401,3.16-2.05,5.063-2.05
		c5.021,0,6.548,3.996,6.548,7.615c0,1.464-0.167,4.456-2.74,6.484c0.502-0.104,1.317-0.293,2.698-0.293h1.109V70.943z
		 M288.899,69.625c4.31,0,4.644-4.603,4.644-6.171c0-3.891-1.673-6.234-4.603-6.234c-4.185,0-4.541,4.666-4.541,6.318
		C284.401,66.027,285.301,69.625,288.899,69.625z"/>
	<path d="M300.394,60.441v6.757c0,1.025,0.229,2.322,2.237,2.322c0.983,0,1.904-0.335,2.47-1.172
		c0.438-0.627,0.438-1.443,0.438-1.967v-5.94h2.029v8.536c0,0.209,0.042,1.38,0.063,1.966h-2.05l-0.042-1.799
		c-0.376,0.731-1.087,1.903-3.349,1.903c-2.592,0-3.807-1.484-3.807-3.556v-7.05L300.394,60.441L300.394,60.441z"/>
	<path d="M311.932,66.048c-0.042,2.176,0.858,3.786,3.013,3.786c1.275,0,2.302-0.669,2.469-2.175h1.966
		c-0.063,0.523-0.146,1.38-0.898,2.196c-0.461,0.522-1.507,1.401-3.62,1.401c-3.306,0-4.874-2.05-4.874-5.376
		c0-2.07,0.418-3.787,2.07-4.937c1.004-0.711,2.261-0.774,2.866-0.774c4.707,0,4.604,4.163,4.562,5.879L311.932,66.048
		L311.932,66.048z M317.476,64.667c0.021-1.004-0.167-3.096-2.595-3.096c-1.274,0-2.824,0.773-2.865,3.096H317.476z M317.371,55.462
		l-2.531,3.013h-1.359l1.715-3.013H317.371z"/>
	<path d="M323.814,61.968c0.271-0.48,1.045-1.799,3.431-1.799c1.046,0,2.364,0.251,3.326,1.339c0.522,0.607,1.233,1.653,1.233,3.954
		c0,2.029-0.48,3.139-1.004,3.828c-0.836,1.192-2.238,1.799-3.682,1.799c-0.502,0-1.443-0.063-2.343-0.669
		c-0.585-0.396-0.816-0.753-1.025-1.066l-0.042,1.59h-1.903l0.042-1.883V55.839h1.968L323.814,61.968L323.814,61.968z
		 M326.785,61.508c-3.012,0-3.012,3.516-3.012,4.185c0,0.689,0,3.975,2.929,3.975c2.427,0,3.033-2.364,3.033-4.08
		C329.734,64.542,329.525,61.508,326.785,61.508z"/>
	<path d="M335.502,66.048c-0.042,2.176,0.857,3.786,3.013,3.786c1.276,0,2.302-0.669,2.469-2.175h1.967
		c-0.063,0.523-0.146,1.38-0.9,2.196c-0.46,0.522-1.506,1.401-3.619,1.401c-3.305,0-4.874-2.05-4.874-5.376
		c0-2.07,0.418-3.787,2.071-4.937c1.004-0.711,2.26-0.774,2.866-0.774c4.707,0,4.603,4.163,4.561,5.879L335.502,66.048
		L335.502,66.048z M341.046,64.667c0.021-1.004-0.167-3.096-2.594-3.096c-1.276,0-2.824,0.773-2.866,3.096H341.046z"/>
	<path d="M351.582,63.809c-0.042-0.481-0.188-2.196-2.092-2.196c-2.721,0-2.721,3.159-2.721,3.954c0,2.155,0.523,4.163,2.615,4.163
		c1.673,0,2.238-1.255,2.28-2.28h1.987c-0.125,2.05-1.652,3.766-4.246,3.766c-0.712,0-2.344-0.146-3.452-1.359
		c-0.628-0.732-1.255-1.841-1.255-4.018c0-4.372,2.678-5.669,4.77-5.669c0.69,0,2.259,0.146,3.223,1.297
		c0.773,0.899,0.837,1.758,0.879,2.344L351.582,63.809L351.582,63.809z"/>
	<path d="M367.355,70.943c-0.146-0.523-0.188-1.025-0.188-1.569c-0.941,1.736-2.364,1.904-3.243,1.904
		c-2.406,0-3.703-1.36-3.703-3.096c0-0.838,0.293-2.177,1.842-3.075c1.129-0.628,2.803-0.69,3.64-0.69
		c0.502,0,0.815,0.021,1.422,0.063c0-1.297,0-1.862-0.376-2.322c-0.397-0.523-1.255-0.69-1.82-0.69c-1.987,0-2.092,1.36-2.112,1.778
		h-1.967c0.063-0.544,0.125-1.275,0.732-1.988c0.795-0.878,2.28-1.129,3.389-1.129c1.527,0,3.159,0.481,3.725,1.548
		c0.335,0.629,0.355,1.131,0.355,1.611l-0.084,5.021c0,0.167,0.021,1.568,0.167,2.636h-1.777V70.943z M364.426,55.462l1.757,3.013
		h-1.297l-2.824-3.013H364.426z M365.996,65.776c-0.795,0-3.787,0-3.787,2.134c0,0.669,0.418,1.82,2.176,1.82
		c1.004,0,1.757-0.397,2.238-1.129c0.439-0.711,0.46-1.297,0.502-2.763C366.77,65.796,366.477,65.776,365.996,65.776z"/>
	<path d="M377.522,55.839h3.702l4.269,12.447l4.373-12.447h3.452v15.104h-2.051V57.344l-4.958,13.599h-1.986l-4.771-13.514v13.514
		h-2.028V55.839H377.522z"/>
	<path d="M401.214,60.169c4.205,0,5.146,3.307,5.146,5.502c0,3.075-1.736,5.627-5.313,5.627c-3.473,0-5.167-2.405-5.167-5.48
		C395.879,63.224,397.093,60.169,401.214,60.169z M401.088,69.834c1.486,0,3.18-1.066,3.18-4.226c0-2.615-1.213-3.996-3.054-3.996
		c-1.255,0-3.284,0.795-3.284,4.079C397.93,67.847,398.85,69.834,401.088,69.834z"/>
	<path d="M408.8,61.654l-0.021-1.213h1.966l0.021,1.694c0.23-0.438,0.983-1.903,3.368-1.903c0.941,0,3.808,0.354,3.808,3.577v7.134
		h-2.008V64.27c0-0.69-0.084-1.318-0.564-1.799c-0.502-0.481-1.192-0.712-1.862-0.712c-1.423,0-2.741,1.025-2.741,3.139v6.046H408.8
		V61.654z"/>
	<path d="M419.402,60.399h1.861v-2.197l1.946-0.627v2.824h2.343v1.442h-2.343v6.298c0,0.522,0,1.4,1.401,1.4
		c0.396,0,0.773-0.063,0.94-0.104v1.526c-0.354,0.063-0.92,0.125-1.631,0.125c-1.799,0-2.657-0.522-2.657-2.237v-7.009h-1.861
		V60.399z"/>
	<path d="M427.481,62.575c0-0.711-0.042-1.443-0.104-2.134h1.987l0.042,2.028c0.376-1.464,1.632-1.944,2.51-2.07
		c0.586-0.084,1.025-0.063,1.36-0.042v1.925c-0.105-0.042-0.23-0.063-0.377-0.084c-0.146-0.021-0.335-0.021-0.564-0.021
		c-2.322,0-2.866,1.382-2.866,3.181v5.585h-1.988L427.481,62.575L427.481,62.575z"/>
	<path d="M436.275,66.048c-0.041,2.176,0.857,3.786,3.013,3.786c1.276,0,2.301-0.669,2.468-2.175h1.967
		c-0.063,0.523-0.146,1.38-0.899,2.196c-0.46,0.522-1.506,1.401-3.619,1.401c-3.305,0-4.874-2.05-4.874-5.376
		c0-2.07,0.418-3.787,2.071-4.937c1.004-0.711,2.26-0.774,2.865-0.774c4.707,0,4.604,4.163,4.562,5.879L436.275,66.048
		L436.275,66.048z M441.819,64.667c0.021-1.004-0.167-3.096-2.595-3.096c-1.275,0-2.823,0.773-2.865,3.096H441.819z M441.715,55.462
		l-2.531,3.013h-1.359l1.715-3.013H441.715z"/>
	<path d="M452.609,70.943c-0.146-0.523-0.188-1.025-0.188-1.569c-0.94,1.736-2.363,1.904-3.242,1.904
		c-2.405,0-3.703-1.36-3.703-3.096c0-0.838,0.293-2.177,1.842-3.075c1.13-0.628,2.803-0.69,3.64-0.69
		c0.502,0,0.816,0.021,1.422,0.063c0-1.297,0-1.862-0.376-2.322c-0.396-0.523-1.255-0.69-1.82-0.69c-1.987,0-2.092,1.36-2.112,1.778
		h-1.967c0.063-0.544,0.125-1.275,0.732-1.988c0.795-0.878,2.28-1.129,3.389-1.129c1.527,0,3.159,0.481,3.725,1.548
		c0.335,0.629,0.355,1.131,0.355,1.611l-0.084,5.021c0,0.167,0.021,1.568,0.167,2.636h-1.778V70.943z M451.25,65.776
		c-0.795,0-3.787,0-3.787,2.134c0,0.669,0.419,1.82,2.176,1.82c1.004,0,1.758-0.397,2.238-1.129
		c0.439-0.711,0.459-1.297,0.501-2.763C452.024,65.796,451.731,65.776,451.25,65.776z"/>
	<path d="M457.183,55.86h1.967v15.083h-1.967V55.86z"/>
</g>
</svg>
