<?xml version="1.0" encoding="utf-8"?>
<!-- Generator: Adobe Illustrator 16.0.0, SVG Export Plug-In . SVG Version: 6.00 Build 0)  -->
<!DOCTYPE svg PUBLIC "-//W3C//DTD SVG 1.1//EN" "http://www.w3.org/Graphics/SVG/1.1/DTD/svg11.dtd">
<svg version="1.1" id="Layer_1" xmlns="http://www.w3.org/2000/svg" xmlns:xlink="http://www.w3.org/1999/xlink" x="0px" y="0px"
	 width="522.5px" height="73px" viewBox="0 0 522.5 73" enable-background="new 0 0 522.5 73" xml:space="preserve">
<g>
	<g>
		<g>
			<path d="M43.2,9.2c-6.3,0-8.6,5.9-8.6,11.8c0,6.3,3.2,11.3,8.6,11.3c5.5,0,8.6-5,8.8-11.3C52,15,49.5,9.2,43.2,9.2 M62.8,38.9
				c-2.5,0.3-4.3,0.5-6.9,1c-2-0.601-9.4-3.8-13.6-5.101c-10.8,0-14.2-7.6-14.1-13.8c0-7.2,4.8-14.3,15-14.3
				c10.7,0,15.1,7.1,15.1,14.2c0,6.3-4.7,12.1-10,13.1c0.6,0.1,0.5,0,1.8,0.4c0.9,0.3,11,3.5,12.9,4.2V38.9H62.8z"/>
			<path d="M75.5,23.3l-3.9-9.7l-3.7,9.7H75.5z M66.8,26.3l-3.1,8h-4.5c1.4-3.3,11.4-25.8,11.9-27h3.1c0.9,1.6,11,24.6,12.1,27h-6.4
				l-3.2-8H66.8z"/>
			<path d="M104.8,25.4L96,7.2h-3.7l-3.7,27h4.5l1.6-17.8c0.7,1,8.1,16.9,8.4,17.8h1.8l8.1-17.8l1.5,17.8h6.4l-3.5-27h-3.9
				L104.8,25.4z"/>
			<path d="M19.3,7.2v15.2c0,3.9-0.8,9.1-6.6,9.1c-3.7,0-6.5-2-6.5-7c0-1.3,0-16.7,0-17.3H0C0,9.9,0,22,0,24.4
				c0,7,5.4,10.2,11.9,10.3C20.3,34.8,24,29.9,24,24.1c0-4,0-16.9,0-16.9H19.3z"/>
			<path d="M59.5,1c2.4-0.3,4.9-0.7,6.5-1c1.5,0.5,10.9,4.1,12.7,4.6v0.3C77.3,5.1,76,5.4,74.1,6c-1.4-0.5-13.3-4.3-14.6-4.7V1z"/>
			<rect x="136.5" fill="#231F20" width="1" height="72.2"/>
		</g>
	</g>
</g>
<g>
	<path fill="#231F20" d="M158.5,6.8v16.7c0,3,0.2,6.8,6,6.8c1,0,3.8,0,5.3-2.4c0.6-0.8,0.9-1.9,0.9-4.7V6.8h5.7V24
		c0,8.2-6.5,10.8-12.1,10.8c-2.7,0-7.8-0.6-10.3-4.8c-1.3-2.1-1.4-4.2-1.4-6.8V6.8H158.5z"/>
	<path fill="#231F20" d="M180.6,18.4c0-0.1,0-2.2-0.1-3.5h5.4l0.2,2.9c0.5-0.9,2.1-3.3,6.2-3.3c3.8,0,5.4,2.3,5.9,3.6
		c0.4,1.2,0.5,2.2,0.5,5.7v10.4H193V22.3c0-0.8,0-1.5-0.3-2.1c-0.4-0.8-1.3-1.6-2.7-1.6c-1.2,0-2.3,0.6-2.9,1.5
		c-0.3,0.5-0.7,1.4-0.7,2.9v11.3h-5.7V18.4H180.6z"/>
	<path fill="#231F20" d="M202.5,6.7h6v4.9h-6V6.7z M202.7,15h5.6v19.2h-5.6V15z"/>
	<path fill="#231F20" d="M216.2,15l4.3,13l4.4-13h5.4l-6.9,19.2h-6.2l-7-19.2H216.2z"/>
	<path fill="#231F20" d="M236.2,26c0,1.3,0,5.1,3.9,5.1c1.4,0,2.8-0.5,3.3-2.7h5.1c-0.1,0.9-0.3,2.5-1.8,4.2
		c-1.4,1.5-3.9,2.2-6.7,2.2c-1.6,0-4.8-0.3-6.8-2.4c-1.8-1.8-2.5-4.4-2.5-7.5s0.8-6.8,4-9.1c1.5-1,3.3-1.6,5.4-1.6
		c2.7,0,6,1.1,7.8,4.6c1.3,2.6,1.2,5.4,1.1,7h-12.8V26z M243.3,22.5c0-0.9-0.1-4.3-3.3-4.3c-2.5,0-3.5,2.1-3.6,4.3H243.3z"/>
	<path fill="#231F20" d="M252,19.7c0-0.9-0.2-3.7-0.3-4.8h5.3l0.1,3.7c0.7-1.6,2-4,6.5-3.7V20c-5.7-0.5-6,2.4-6,4.8v9.5H252V19.7z"
		/>
	<path fill="#231F20" d="M270.1,28.7c0.101,1.2,0.801,2.6,3.2,2.6c2,0,3-1.1,3-2.3c0-0.9-0.5-1.6-2.7-2.2l-3.5-1
		c-1.6-0.5-4.899-1.4-4.899-5.3c0-3.7,3.399-6,8.399-6c4,0,7.2,1.8,7.301,5.7H275.8c-0.2-2.1-1.899-2.3-2.7-2.3
		c-1.5,0-2.699,0.7-2.699,1.9c0,1.3,1,1.6,2.6,2l3.5,1c3.5,1,5.1,2.7,5.1,5.4c0,3.3-2.899,6.6-8.8,6.6c-2.5,0-4.8-0.5-6.6-2.4
		c-1.3-1.3-1.4-2.9-1.4-3.8h5.3V28.7z"/>
	<path fill="#231F20" d="M284.3,6.7h6v4.9h-6V6.7z M284.4,15h5.6v19.2h-5.6V15z"/>
	<path fill="#231F20" d="M305.5,33.9c-1.8,0.5-3.5,0.6-4.4,0.6c-5.699,0-5.699-3.6-5.699-5.2V18.8h-3.7v-3.7h3.7v-3.8l5.6-2.1V15
		h4.6v3.7H301v8.7c0,1.8,0,2.9,2.5,2.9c0.8,0,1.2,0,1.9-0.1v3.7H305.5z"/>
	<path fill="#231F20" d="M312.4,26c0,1.3,0,5.1,3.899,5.1c1.4,0,2.8-0.5,3.3-2.7h5.101c-0.101,0.9-0.3,2.5-1.8,4.2
		c-1.4,1.5-3.9,2.2-6.7,2.2c-1.601,0-4.8-0.3-6.8-2.4c-1.801-1.8-2.5-4.4-2.5-7.5s0.8-6.8,4-9.1c1.5-1,3.3-1.6,5.399-1.6
		c2.7,0,6,1.1,7.8,4.6c1.301,2.6,1.2,5.4,1.101,7h-12.8V26z M319.5,22.5c0-0.9-0.1-4.3-3.3-4.3c-2.5,0-3.5,2.1-3.601,4.3H319.5z
		 M316.4,12h-3l3.199-5.5h5.101L316.4,12z"/>
	<path fill="#231F20" d="M350.6,6.7h5.7V31c0,1.1,0.101,2.4,0.2,3.1h-5.7l-0.2-2.8c-0.399,0.7-0.8,1.4-1.899,2.2
		c-1.4,0.9-2.9,1-3.7,1c-5.1,0-8.2-3.5-8.2-9.5c0-6.4,3.5-10.3,8.5-10.3c3.5,0,4.9,1.9,5.4,2.6V6.7H350.6z M346.3,30.9
		c1.601,0,3-1,3.601-2.2c0.8-1.6,0.899-3.6,0.899-4.5c0-3.8-1.6-5.8-4.2-5.8c-3.8,0-4.199,4.5-4.199,6.5
		C342.4,28.1,343.5,30.9,346.3,30.9z"/>
	<path fill="#231F20" d="M365.7,15v11.4c0,1.7,0,4.2,3,4.2c3.6,0,3.6-2.7,3.6-6V15h5.8v12.7c0.101,4.1,0.101,4.6,0.101,5.1
		s0.1,0.9,0.2,1.4h-5.5l-0.2-2.5c-0.601,0.8-2,3-5.7,3c-2.6,0-4.7-1.2-5.8-2.6c-1.3-1.6-1.3-4.2-1.3-5.2V15H365.7z"/>
	<path fill="#231F20" d="M418.9,34.3c-1.7,0-5-0.1-6.801-0.1c-0.699,0-2.6,0.1-4.5,0.2c-1.899,0.1-3.699,0.2-4.3,0.2
		c-10.3,0-12.1-9.5-12.1-14c0-7.5,3.899-14.5,13.2-14.5c7.1,0,12.399,4.8,12.399,13.8c0,6.2-2.899,9-4.1,10.2
		c1.3-0.2,3.8-0.4,6.2-0.3V34.3L418.9,34.3z M404,30.4c5.8,0,6.8-6,6.8-10.4c0-3.9-0.899-5.8-1.7-7c-0.699-1.1-2.3-2.5-4.899-2.5
		c-5.2,0-6.9,4.9-6.9,10C397.3,24.2,398.4,30.4,404,30.4z"/>
	<path fill="#231F20" d="M426.7,15v11.4c0,1.7,0,4.2,3,4.2c3.6,0,3.6-2.7,3.6-6V15h5.8v12.7c0.101,4.1,0.101,4.6,0.101,5.1
		s0.1,0.9,0.2,1.4h-5.5l-0.2-2.5c-0.601,0.8-2,3-5.7,3c-2.6,0-4.7-1.2-5.8-2.6c-1.3-1.6-1.3-4.2-1.3-5.2V15H426.7z"/>
	<path fill="#231F20" d="M447.8,26c0,1.3,0,5.1,3.9,5.1c1.399,0,2.8-0.5,3.3-2.7h5.1c-0.1,0.9-0.3,2.5-1.8,4.2
		c-1.399,1.5-3.899,2.2-6.7,2.2c-1.6,0-4.8-0.3-6.8-2.4c-1.8-1.8-2.5-4.4-2.5-7.5s0.8-6.8,4-9.1c1.5-1,3.3-1.6,5.4-1.6
		c2.7,0,6,1.1,7.8,4.6c1.3,2.6,1.2,5.4,1.1,7h-12.8V26z M455,22.5c0-0.9-0.1-4.3-3.3-4.3c-2.5,0-3.5,2.1-3.601,4.3H455z M451.9,12
		h-3l3.199-5.5h5.101L451.9,12z"/>
	<path fill="#231F20" d="M463.6,6.8h5.601v10.5c1.899-2.5,4.5-2.6,5.399-2.6c4.7,0,8.4,3.7,8.4,10.2c0,7.2-4.2,9.7-8,9.7
		c-1,0-4-0.1-5.8-3.1c0,0.6-0.101,1.5-0.2,2.7h-5.4V6.8z M473.2,18.5c-4.101,0-4.101,4.7-4.101,5.9c0,4.4,1.9,6.5,4.4,6.5
		c3.9,0,3.9-4.8,3.9-5.8C477.3,23.6,477.2,18.5,473.2,18.5z"/>
	<path fill="#231F20" d="M490.7,26c0,1.3,0,5.1,3.899,5.1c1.4,0,2.801-0.5,3.301-2.7h5.1c-0.1,0.9-0.3,2.5-1.8,4.2
		c-1.4,1.5-3.9,2.2-6.7,2.2c-1.6,0-4.8-0.3-6.8-2.4c-1.8-1.8-2.5-4.4-2.5-7.5s0.8-6.8,4-9.1c1.5-1,3.3-1.6,5.399-1.6
		c2.7,0,6,1.1,7.801,4.6c1.3,2.6,1.199,5.4,1.1,7h-12.8V26z M497.9,22.5c0-0.9-0.101-4.3-3.301-4.3c-2.5,0-3.5,2.1-3.6,4.3H497.9z"
		/>
	<path fill="#231F20" d="M516.9,21.8c-0.101-0.7-0.301-3.5-2.5-3.5c-2.7,0-3,4-3,6.1c0,1.1,0.1,4.5,1.399,5.9
		c0.5,0.6,1.101,0.6,1.5,0.6c0.601,0,2.4-0.3,2.601-3.7h5.6c-0.1,1.5-0.3,3.8-2.5,5.7c-1.4,1.2-3.1,1.8-5.5,1.8
		c-2.5,0-4.8-0.6-6.5-2.5c-1.7-1.9-2.4-4.5-2.4-7.6c0-8.7,6.4-10,9-10c3.601,0,7.801,2,7.801,7.2H516.9z"/>
	<path fill="#231F20" d="M164.7,72.2c-0.2-1.2-0.2-2.101-0.2-2.601c-2.1,3.101-4.7,3.101-5.7,3.101c-2.8,0-4-0.8-4.8-1.5
		c-1.1-1.101-1.7-2.7-1.7-4.2s0.5-4.3,4.1-6c2.4-1.1,5.7-1.1,7.6-1.1c0-1.301,0-1.9-0.3-2.5c-0.5-1.4-2-1.601-2.5-1.601
		c-0.8,0-1.6,0.3-2.1,1.101c-0.4,0.6-0.4,1.3-0.4,1.699h-5.5c0-1,0.2-3.1,2.2-4.5c1.7-1.3,4-1.6,5.8-1.6c1.6,0,4.9,0.3,6.8,2.5
		c1.3,1.6,1.3,3.8,1.3,4.7v7.7c0,1.6,0.1,3.3,0.5,4.899h-5.1V72.2z M164,50h-3.2l-5.3-5.5h5.3L164,50z M157.7,66.3
		c0,1.3,0.9,2.7,2.7,2.7c1,0,1.9-0.5,2.4-1.1c1-1.2,1.1-2.7,1.1-4.801C160.3,62.9,157.7,64,157.7,66.3z"/>
	<path fill="#231F20" d="M183,44.7h9.6l5.8,20l6.3-20h9.4v27.5h-5.9V48.7l-7.5,23.6h-4.9l-7.3-23.6v23.6H183V44.7z"/>
	<path fill="#231F20" d="M227.2,52.6c7,0,10,4.7,10,10.101c0,5.399-3.1,10.3-10.1,10.3c-5.5,0-9.8-3.4-9.8-10.1
		C217.3,58.2,219.7,52.6,227.2,52.6z M227.3,69c2.5,0,4.1-1.5,4.1-6.6c0-2.5-0.5-6.101-4.2-6.101c-4.1,0-4.1,4.8-4.1,6.5
		C223.1,67.1,224.5,69,227.3,69z"/>
	<path fill="#231F20" d="M240.3,56.5c0-0.1,0-2.2-0.1-3.5h5.4l0.2,2.9c0.5-0.9,2.1-3.301,6.2-3.301c3.8,0,5.4,2.301,5.9,3.601
		c0.4,1.2,0.5,2.2,0.5,5.7V72.3h-5.7v-12c0-0.8,0-1.5-0.3-2.1c-0.4-0.8-1.3-1.601-2.7-1.601c-1.2,0-2.3,0.601-2.9,1.5
		c-0.3,0.5-0.7,1.4-0.7,2.9v11.3h-5.7V56.5H240.3z"/>
	<path fill="#231F20" d="M273.9,72c-1.801,0.5-3.5,0.6-4.4,0.6c-5.7,0-5.7-3.6-5.7-5.199V56.9h-3.7v-3.7h3.7v-3.8L269.4,47.3v5.8
		h4.6v3.7h-4.6v8.7c0,1.8,0,2.9,2.5,2.9c0.8,0,1.199,0,1.899-0.101V72H273.9z"/>
	<path fill="#231F20" d="M276.4,57.8c0-0.899-0.2-3.7-0.301-4.8h5.301l0.1,3.7c0.7-1.601,2-4,6.5-3.7v5c-5.7-0.5-6,2.4-6,4.8v9.5
		h-5.6V57.8z"/>
	<path fill="#231F20" d="M294.7,64.1c0,1.301,0,5.101,3.899,5.101c1.4,0,2.801-0.5,3.301-2.7h5.1c-0.1,0.9-0.3,2.5-1.8,4.2
		c-1.4,1.5-3.9,2.2-6.7,2.2c-1.6,0-4.8-0.301-6.8-2.4c-1.8-1.8-2.5-4.4-2.5-7.5s0.8-6.8,4-9.1c1.5-1,3.3-1.601,5.399-1.601
		c2.7,0,6,1.101,7.801,4.601c1.3,2.6,1.199,5.399,1.1,7h-12.8V64.1z M301.9,60.5c0-0.9-0.101-4.3-3.301-4.3c-2.5,0-3.5,2.1-3.6,4.3
		H301.9z M298.8,50h-3l3.2-5.5h5.1L298.8,50z"/>
	<path fill="#231F20" d="M322,72.2c-0.2-1.2-0.2-2.101-0.2-2.601c-2.1,3.101-4.7,3.101-5.7,3.101c-2.8,0-4-0.8-4.8-1.5
		c-1.1-1.101-1.7-2.7-1.7-4.2s0.5-4.3,4.101-6c2.399-1.1,5.7-1.1,7.6-1.1c0-1.301,0-1.9-0.3-2.5c-0.5-1.4-2-1.601-2.5-1.601
		c-0.8,0-1.6,0.3-2.1,1.101c-0.4,0.6-0.4,1.3-0.4,1.699h-5.5c0-1,0.2-3.1,2.2-4.5c1.7-1.3,4-1.6,5.8-1.6c1.6,0,4.9,0.3,6.8,2.5
		c1.3,1.6,1.3,3.8,1.3,4.7v7.7c0,1.6,0.101,3.3,0.5,4.899H322V72.2z M315,66.3c0,1.3,0.9,2.7,2.7,2.7c1,0,1.899-0.5,2.399-1.1
		c1-1.2,1.101-2.7,1.101-4.801C317.6,62.9,315,64,315,66.3z"/>
	<path fill="#231F20" d="M330.5,44.7h5.6v27.5h-5.6V44.7z"/>
</g>
</svg>
