<?xml version="1.0" encoding="utf-8"?>
<!-- Generator: Adobe Illustrator 16.0.3, SVG Export Plug-In . SVG Version: 6.00 Build 0)  -->
<!DOCTYPE svg PUBLIC "-//W3C//DTD SVG 1.1//EN" "http://www.w3.org/Graphics/SVG/1.1/DTD/svg11.dtd">
<svg version="1.1" id="Layer_1" xmlns="http://www.w3.org/2000/svg" xmlns:xlink="http://www.w3.org/1999/xlink" x="0px" y="0px"
	 width="115px" height="38px" viewBox="0 0 115 38" enable-background="new 0 0 115 38" xml:space="preserve">
<g>
	<path fill="#00ADE6" d="M59.8,37c-2.3,0.3-4.1,0.5-6.5,1c-1.9-0.6-9-3.6-12.9-4.8C30,33.1,26.8,25.9,26.8,20
		c0-6.8,4.6-13.6,14.2-13.6c10.2,0,14.4,6.8,14.4,13.5c0,6-4.5,11.5-9.5,12.5c0.5,0.1,0.4,0,1.7,0.398c0.8,0.301,10.5,3.4,12.2,4V37
		z M41,8.7c-6,0-8.2,5.6-8.2,11.2c0,6,3.1,10.699,8.1,10.699c5.2,0,8.1-4.699,8.3-10.801C49.5,14.3,47.1,8.7,41,8.7z"/>
	<path fill="#00ADE6" d="M63.5,25l-2.9,7.6h-4.3c1.3-3.1,10.8-24.5,11.3-25.7h3C71.3,8.4,81,30.3,82,32.6h-6L72.9,25H63.5z
		 M71.8,22.2L68.1,13l-3.5,9.2H71.8z"/>
	<path fill="#00ADE6" d="M99.6,24.2L91.3,6.9h-3.5l-3.5,25.7h4.2L90,15.7c0.6,0.9,7.7,16.1,8,16.899h1.7l7.7-16.899l1.5,16.899h6.1
		l-3.3-25.701H108L99.6,24.2z"/>
	<path fill="#00ADE6" d="M18.3,6.9c0,3.2,0,13,0,14.4c0,3.7-0.8,8.7-6.3,8.7c-3.5,0-6.2-1.9-6.2-6.6c0-1.301,0-15.9,0-16.5H0
		c0,2.6,0,14,0,16.4C0,29.9,5.1,33,11.3,33c8,0.1,11.6-4.6,11.6-10c0-3.8,0-16.1,0-16.1H18.3z"/>
	<path fill="#00ADE6" d="M56.6,1c2.3-0.3,4.6-0.7,6.2-1C64.2,0.5,73.1,3.9,74.9,4.4v0.3c-1.4,0.2-2.602,0.5-4.4,1
		c-1.4-0.4-12.7-4.1-13.9-4.5V1z"/>
</g>
</svg>
